<?xml version="1.0" standalone="no"?>
<!DOCTYPE svg PUBLIC "-//W3C//DTD SVG 20010904//EN"
 "http://www.w3.org/TR/2001/REC-SVG-20010904/DTD/svg10.dtd">
<svg version="1.0" xmlns="http://www.w3.org/2000/svg"
 width="225.000000pt" height="225.000000pt" viewBox="0 0 225.000000 225.000000"
 preserveAspectRatio="xMidYMid meet">
<g transform="translate(0.000000,225.000000) scale(0.100000,-0.100000)"
fill="#2196F3" fill-rule="nonzero" fill-opacity="1" stroke="none">
<path d="M675 2131 c-54 -14 -93 -40 -135 -90 -35 -41 -48 -49 -86 -55 -87
-12 -173 -77 -215 -164 -26 -53 -35 -147 -20 -207 11 -44 11 -47 -17 -70 -15
-13 -41 -47 -57 -77 -25 -45 -29 -65 -31 -136 -1 -46 2 -100 8 -120 12 -43 63
-116 95 -133 l21 -11 -29 -62 c-63 -133 -25 -315 88 -420 25 -24 136 -66 172
-66 12 0 23 -12 32 -32 39 -100 123 -159 235 -166 65 -4 80 -2 130 23 55 27
57 27 86 11 65 -39 85 -46 133 -45 28 0 67 6 88 13 37 14 38 14 54 -18 9 -17
26 -44 37 -60 20 -27 23 -28 87 -22 54 5 69 3 80 -10 7 -8 29 -24 50 -34 25
-13 41 -31 52 -58 26 -64 39 -72 120 -72 98 0 112 6 132 50 16 35 79 90 103
90 5 0 17 9 26 19 15 16 27 18 70 14 51 -5 53 -5 87 35 19 22 42 61 52 86 l19
45 -28 37 c-25 32 -29 46 -31 117 -2 75 0 83 28 122 29 41 30 44 16 77 -8 19
-32 58 -52 87 l-38 53 -56 -4 c-49 -4 -63 -1 -114 27 -49 27 -63 41 -82 84
-13 28 -29 51 -36 51 -8 0 -6 6 4 18 23 25 46 84 58 145 18 98 -25 223 -103
293 l-38 34 17 33 c28 51 25 208 -5 264 -60 113 -135 159 -264 162 -62 2 -85
6 -91 17 -20 36 -73 87 -111 107 -59 31 -193 30 -253 -1 l-43 -22 -41 20 c-45
23 -154 34 -204 21z m175 -70 l35 -16 3 -160 2 -161 -35 -34 c-34 -33 -38 -34
-131 -38 -88 -4 -97 -3 -119 18 -63 59 -156 -19 -95 -80 27 -27 66 -25 94 5
22 23 30 25 122 25 98 0 132 10 156 44 4 6 8 -44 8 -111 0 -116 -1 -123 -20
-123 -10 0 -24 8 -29 19 -13 24 -55 35 -81 21 -50 -27 -49 -89 0 -115 32 -17
66 -8 83 21 4 8 17 14 27 14 19 0 20 -8 20 -214 l0 -214 -30 -31 c-40 -39 -84
-51 -196 -51 -84 0 -92 2 -114 25 -13 14 -34 25 -47 25 -56 0 -85 -83 -41
-114 32 -23 66 -20 92 9 22 24 29 25 133 25 95 0 116 3 156 24 l47 23 0 -223
0 -222 -37 -24 c-58 -36 -152 -33 -215 6 -43 28 -98 96 -98 121 0 7 19 17 42
24 24 7 53 19 65 27 14 8 33 12 47 8 19 -4 32 1 50 20 33 32 33 60 1 91 -27
28 -37 30 -68 14 -30 -16 -37 -28 -37 -65 0 -28 -5 -34 -40 -48 -64 -25 -166
-21 -227 9 -56 28 -115 101 -133 165 -34 119 26 251 144 312 33 18 63 23 154
26 111 4 113 4 133 -22 38 -48 109 -24 109 37 0 63 -70 91 -108 43 -17 -23
-26 -24 -138 -28 -106 -3 -125 -6 -174 -30 l-55 -27 -37 24 c-62 41 -92 96
-96 177 -5 84 14 140 62 187 l34 33 38 -37 c42 -42 125 -85 167 -85 15 0 27
-4 27 -9 0 -18 32 -41 58 -41 30 0 72 36 72 62 0 25 -44 68 -70 68 -11 0 -33
-12 -47 -26 -24 -24 -29 -25 -62 -15 -120 35 -203 155 -187 269 8 57 52 138
91 168 70 53 164 67 245 36 38 -15 46 -22 48 -47 4 -35 38 -75 62 -75 27 0 70
39 70 64 0 37 -28 66 -64 66 -19 0 -53 8 -77 19 -24 10 -53 21 -63 25 -18 6
-16 10 19 46 66 67 165 84 255 41z m361 -12 c29 -21 85 -87 78 -93 -2 -1 -20
-12 -40 -24 -49 -29 -104 -102 -119 -157 -7 -25 -17 -45 -23 -45 -20 0 -47
-33 -47 -58 0 -35 27 -62 63 -62 60 0 88 61 48 104 -18 19 -18 25 -6 60 46
131 200 198 337 146 133 -50 194 -209 131 -338 -13 -28 -23 -36 -38 -33 -11 2
-64 5 -117 8 -89 4 -98 7 -113 29 -31 47 -115 22 -115 -35 0 -32 8 -44 38 -60
27 -14 53 -8 77 19 15 17 31 20 94 20 63 0 86 -5 137 -29 163 -77 215 -277
108 -418 -22 -30 -30 -33 -75 -33 -45 0 -51 -3 -69 -32 -10 -18 -24 -39 -30
-45 -18 -21 -57 -15 -84 12 -32 32 -60 32 -91 0 -32 -31 -31 -50 3 -84 l27
-28 -46 5 c-45 4 -46 3 -82 -46 -21 -27 -44 -66 -52 -86 -16 -37 -15 -37 25
-94 22 -32 40 -61 40 -65 0 -4 -15 -7 -33 -7 -23 0 -41 8 -57 25 -29 31 -56
32 -87 3 -30 -28 -30 -72 -1 -92 33 -23 66 -20 93 10 32 35 79 31 83 -8 5 -39
-54 -93 -122 -113 -63 -18 -110 -10 -167 28 l-34 23 -3 122 c-3 137 7 171 58
197 40 21 55 19 84 -10 31 -31 62 -32 93 -3 28 26 30 61 3 88 -27 27 -66 25
-94 -5 -14 -15 -34 -25 -50 -25 -15 0 -40 -7 -55 -15 -16 -8 -31 -11 -35 -8
-3 4 -6 57 -6 120 l0 113 61 0 c46 0 67 -5 86 -20 14 -11 36 -20 49 -20 31 0
64 33 64 63 0 54 -89 83 -118 39 -12 -19 -24 -22 -78 -22 l-64 0 0 100 c0 55
1 100 3 100 1 0 24 -11 51 -25 47 -24 58 -25 213 -25 161 0 164 0 191 -25 33
-30 42 -31 76 -4 30 24 35 69 10 93 -25 26 -81 20 -100 -9 -16 -25 -19 -26
-128 -23 l-111 3 -3 68 c-2 39 1 67 7 67 19 0 41 32 41 59 0 55 -69 83 -110
46 -33 -30 -18 -105 21 -105 6 0 9 -28 7 -67 l-3 -68 -33 3 c-48 3 -90 28
-112 65 -19 30 -20 52 -20 367 0 184 4 340 8 346 35 53 196 61 263 13z m529
-1107 c23 -48 32 -56 95 -88 58 -28 79 -34 123 -32 l53 3 26 -46 26 -46 -25
-34 c-23 -31 -25 -42 -24 -136 1 -90 4 -106 25 -134 l24 -32 -22 -44 -21 -44
-54 2 c-44 2 -59 -2 -88 -24 -19 -15 -55 -36 -80 -47 -36 -16 -49 -28 -61 -59
-17 -41 -39 -52 -96 -43 -26 4 -36 13 -56 52 -16 31 -34 51 -55 60 -17 7 -46
25 -65 40 -32 25 -41 28 -93 23 l-57 -5 -23 40 c-12 22 -22 45 -22 51 0 6 16
28 35 50 33 36 35 42 35 111 0 67 -2 76 -36 121 -32 45 -35 52 -25 77 7 15 19
37 29 49 16 19 22 20 77 12 51 -7 64 -6 85 10 14 10 40 26 58 35 23 12 39 32
53 64 29 68 36 73 88 70 45 -3 47 -4 71 -56z"/>
<path d="M1583 779 c-44 -13 -120 -92 -133 -137 -44 -161 56 -302 215 -302 59
0 134 30 167 67 61 67 74 180 31 263 -41 78 -94 112 -180 116 -37 2 -83 -1
-100 -7z m162 -63 c49 -17 102 -77 111 -123 14 -75 -35 -166 -109 -202 -109
-53 -232 5 -267 126 -42 140 108 253 265 199z"/>
</g>
</svg>
